<!--?xml version="1.0" encoding="utf-8"?-->
<!-- Generator: Adobe Illustrator 15.1.0, SVG Export Plug-In . SVG Version: 6.00 Build 0)  -->

<svg version="1.1" id="_x32_" xmlns="http://www.w3.org/2000/svg" xmlns:xlink="http://www.w3.org/1999/xlink" x="0px" y="0px" width="512px" height="512px" viewBox="0 0 512 512" style="width: 256px; height: 256px; opacity: 1;" xml:space="preserve">
<style type="text/css">

	.st0{fill:#4B4B4B;}

</style>
<g>
	<path class="st0" d="M192.454,219.125c28.047,8.734,35.953-22.688,35.953-22.688c-17.203-1.156-56.281-16.406-56.281-16.406
		S168.61,211.688,192.454,219.125z" style="fill: rgb(75, 75, 75);"></path>
	<path class="st0" d="M285.985,196.438c0,0,7.906,31.422,35.969,22.688c23.828-7.438,20.313-39.094,20.313-39.094
		S303.188,195.281,285.985,196.438z" style="fill: rgb(75, 75, 75);"></path>
	<path class="st0" d="M438.172,415.984c-10.219-17.953-25.015-29.328-37.218-37.047c-6.125-3.875-11.703-6.859-15.781-9.094
		c-2.031-1.125-3.672-2.063-4.656-2.656l-0.813-0.531c-1.969-1.891-3.766-3.328-5.047-4.344c-0.094-0.078-0.141-0.125-0.219-0.172
		c0.281-0.797,0.672-1.734,1.203-2.906c1.328-2.859,3.5-6.766,6.656-11.672c10.969-17.063,25.266-40.625,36.938-68.656
		c11.64-28.031,20.75-60.719,20.765-96.109c-0.063-42.781-16.125-87.813-47.234-123c-15.563-17.563-34.984-32.578-57.969-43.141
		C311.829,6.063,285.329-0.016,256,0c-29.313-0.016-55.813,6.063-78.797,16.656c-34.5,15.875-60.875,41.688-78.469,71.188
		c-17.609,29.547-26.703,62.844-26.719,94.953c0,35.391,9.109,68.078,20.75,96.109c11.672,28.031,25.969,51.594,36.938,68.656
		c3.859,5.969,6.203,10.484,7.406,13.406c0.188,0.453,0.297,0.813,0.438,1.172c-1.297,1.016-3.172,2.516-5.234,4.5
		c-0.203,0.172-1.859,1.203-4.125,2.453c-4.109,2.281-10.281,5.5-17.063,9.781C100.907,385.344,89,394.281,79.313,407.5
		c-9.719,13.156-16.734,30.906-16.641,52.047v9.578l7.797,5.531C73.641,477,125.625,512.078,256,512
		c130.375,0.078,182.359-35,185.531-37.344l7.797-5.531v-9.578C449.359,442.688,444.969,427.891,438.172,415.984z M118.375,240.641
		c-5.625-18.375-9.266-37.875-9.266-57.844c-0.016-8.578,0.875-17.406,2.563-26.266h288.625c1.688,8.859,2.594,17.688,2.594,26.266
		c0,19.969-3.625,39.469-9.266,57.844H118.375z" style="fill: rgb(75, 75, 75);"></path>
</g>
</svg>
